<svg xmlns="http://www.w3.org/2000/svg" xmlns:xlink="http://www.w3.org/1999/xlink" width="500" zoomAndPan="magnify" viewBox="0 0 375 233.04" height="300" preserveAspectRatio="xMidYMid meet" version="1.0"><defs><g/><clipPath id="c813e24a1a"><path d="M 10.761719 29.964844 L 96 29.964844 L 96 114 L 10.761719 114 Z M 10.761719 29.964844 " clip-rule="nonzero"/></clipPath><clipPath id="48febc2093"><path d="M 27 54 L 119 54 L 119 138.269531 L 27 138.269531 Z M 27 54 " clip-rule="nonzero"/></clipPath><clipPath id="5f4e12ba39"><path d="M 10.761719 49 L 77 49 L 77 114 L 10.761719 114 Z M 10.761719 49 " clip-rule="nonzero"/></clipPath><clipPath id="a3550fe548"><rect x="0" width="242" y="0" height="146"/></clipPath><clipPath id="8bae2e3a7d"><rect x="0" width="357" y="0" height="38"/></clipPath></defs><g clip-path="url(#c813e24a1a)"><path fill="#d9d9d9" d="M 95.726562 29.980469 L 95.726562 49.992188 C 92.34375 46.175781 88.019531 43.167969 82.808594 40.9375 C 77.597656 38.734375 71.820312 37.632812 65.5625 37.632812 C 59.355469 37.632812 53.875 38.683594 49.121094 40.75 C 44.367188 42.847656 40.660156 45.855469 37.972656 49.855469 C 35.285156 53.859375 33.96875 58.613281 33.96875 64.121094 C 33.96875 68.714844 34.722656 72.503906 36.253906 75.511719 C 37.785156 78.519531 39.800781 81.019531 42.296875 83.035156 C 44.796875 85.019531 47.535156 86.6875 50.519531 88.003906 C 53.5 89.320312 56.480469 90.472656 59.488281 91.496094 C 62.5 92.515625 65.265625 93.589844 67.765625 94.691406 C 70.261719 95.792969 72.277344 97.109375 73.808594 98.640625 C 75.339844 100.171875 76.089844 102.160156 76.089844 104.632812 C 76.089844 107.34375 74.9375 109.464844 72.597656 110.996094 C 70.261719 112.527344 66.984375 113.28125 62.742188 113.28125 C 58.066406 113.28125 53.984375 112.367188 50.4375 110.542969 C 46.917969 108.714844 43.695312 106.136719 40.820312 102.832031 L 20.78125 102.832031 C 15.246094 102.859375 10.761719 98.371094 10.761719 92.839844 L 10.761719 29.980469 Z M 95.726562 29.980469 " fill-opacity="1" fill-rule="nonzero"/></g><g clip-path="url(#48febc2093)"><path fill="#222222" d="M 118.832031 72.878906 L 118.832031 138.023438 L 27.84375 138.023438 L 27.84375 115.699219 C 32.25 120.613281 37.113281 124.296875 42.433594 126.710938 C 47.722656 129.128906 54.089844 130.339844 61.476562 130.339844 C 72.25 130.339844 80.710938 127.894531 86.808594 123.003906 C 92.933594 118.117188 95.96875 111.402344 95.96875 102.832031 C 95.96875 98.15625 95.21875 94.234375 93.6875 91.039062 C 92.15625 87.84375 90.140625 85.234375 87.644531 83.140625 C 85.144531 81.074219 82.40625 79.351562 79.421875 77.984375 C 76.628906 76.695312 73.808594 75.566406 70.960938 74.597656 C 70.800781 74.542969 70.613281 74.492188 70.449219 74.410156 C 67.441406 73.390625 64.675781 72.367188 62.175781 71.347656 C 59.679688 70.328125 57.664062 69.117188 56.132812 67.722656 C 54.601562 66.324219 53.847656 64.472656 53.847656 62.1875 C 53.847656 59.714844 54.871094 57.835938 56.910156 56.519531 C 58.953125 55.203125 61.71875 54.558594 65.183594 54.558594 C 68.675781 54.558594 71.792969 55.230469 74.535156 56.601562 C 77.300781 57.96875 80.039062 60.039062 82.753906 62.832031 L 108.8125 62.832031 C 114.34375 62.859375 118.832031 67.34375 118.832031 72.878906 Z M 118.832031 72.878906 " fill-opacity="1" fill-rule="nonzero"/></g><g clip-path="url(#5f4e12ba39)"><path fill="#d9d9d9" d="M 76.117188 104.632812 C 76.117188 107.34375 74.964844 109.464844 72.625 110.996094 C 70.289062 112.527344 67.011719 113.28125 62.765625 113.28125 C 58.09375 113.28125 54.011719 112.367188 50.464844 110.542969 C 46.945312 108.714844 43.722656 106.136719 40.847656 102.832031 L 20.78125 102.832031 C 15.246094 102.859375 10.761719 98.371094 10.761719 92.839844 L 10.761719 88.40625 L 37.972656 49.882812 C 35.285156 53.886719 33.96875 58.640625 33.96875 64.148438 C 33.96875 68.742188 34.722656 72.53125 36.253906 75.539062 C 37.785156 78.546875 39.800781 81.046875 42.296875 83.058594 C 44.796875 85.046875 47.535156 86.714844 50.519531 88.03125 C 53.5 89.347656 56.480469 90.5 59.488281 91.523438 C 62.5 92.542969 65.265625 93.617188 67.765625 94.71875 C 70.261719 95.820312 72.277344 97.136719 73.808594 98.667969 C 75.367188 100.171875 76.117188 102.1875 76.117188 104.632812 Z M 76.117188 104.632812 " fill-opacity="1" fill-rule="nonzero"/></g><g transform="matrix(1, 0, 0, 1, 118, 33)"><g clip-path="url(#a3550fe548)"><g fill="#222222" fill-opacity="1"><g transform="translate(0.838486, 105.169263)"><g><path d="M 31.9375 -87.1875 L 31.9375 -62.4375 L 67.484375 -62.4375 L 67.484375 -45.75 L 31.9375 -45.75 L 31.9375 -16.6875 L 82.4375 -16.6875 L 82.4375 0 L 12.078125 0 L 12.078125 -103.875 L 80.859375 -103.875 L 80.859375 -87.1875 Z M 31.9375 -87.1875 "/></g></g></g><g fill="#222222" fill-opacity="1"><g transform="translate(88.74139, 105.169263)"><g><path d="M 11.078125 0 L 11.078125 -103.875 L 28.921875 -103.875 L 28.921875 0 Z M 11.078125 0 "/></g></g></g><g fill="#222222" fill-opacity="1"><g transform="translate(128.736493, 105.169263)"><g><path d="M 11.078125 0 L 11.078125 -103.875 L 28.921875 -103.875 L 28.921875 0 Z M 11.078125 0 "/></g></g></g><g fill="#222222" fill-opacity="1"><g transform="translate(168.731596, 105.169263)"><g><path d="M 68.484375 -37.40625 C 68.484375 -25.507812 65.582031 -16.0625 59.78125 -9.0625 C 53.976562 -2.0625 46.039062 1.4375 35.96875 1.4375 C 29.351562 1.4375 23.597656 -0.144531 18.703125 -3.3125 C 13.804688 -6.476562 10.039062 -10.984375 7.40625 -16.828125 C 4.769531 -22.679688 3.453125 -29.539062 3.453125 -37.40625 C 3.453125 -49.488281 6.398438 -58.984375 12.296875 -65.890625 C 18.203125 -72.796875 26.09375 -76.25 35.96875 -76.25 C 46.039062 -76.25 53.976562 -72.796875 59.78125 -65.890625 C 65.582031 -58.984375 68.484375 -49.488281 68.484375 -37.40625 Z M 35.96875 -12.953125 C 40.957031 -12.953125 44.648438 -14.914062 47.046875 -18.84375 C 49.441406 -22.78125 50.640625 -28.96875 50.640625 -37.40625 C 50.640625 -45.65625 49.441406 -51.789062 47.046875 -55.8125 C 44.648438 -59.84375 40.957031 -61.859375 35.96875 -61.859375 C 30.882812 -61.859375 27.164062 -59.820312 24.8125 -55.75 C 22.46875 -51.675781 21.296875 -45.5625 21.296875 -37.40625 C 21.296875 -28.96875 22.492188 -22.78125 24.890625 -18.84375 C 27.285156 -14.914062 30.976562 -12.953125 35.96875 -12.953125 Z M 35.96875 -12.953125 "/></g></g></g></g></g><g transform="matrix(1, 0, 0, 1, 9, 136)"><g clip-path="url(#8bae2e3a7d)"><g fill="#222222" fill-opacity="1"><g transform="translate(1.924829, 29.484633)"><g><path d="M 1.3125 -17.0625 C 1.3125 -17.601562 1.488281 -18 1.84375 -18.25 C 2.195312 -18.507812 2.585938 -18.640625 3.015625 -18.640625 C 3.441406 -18.640625 3.832031 -18.507812 4.1875 -18.25 C 4.550781 -18 4.734375 -17.601562 4.734375 -17.0625 L 4.734375 -1.5 C 4.734375 -1.007812 4.550781 -0.632812 4.1875 -0.375 C 3.832031 -0.125 3.441406 0 3.015625 0 C 2.585938 0 2.195312 -0.117188 1.84375 -0.359375 C 1.488281 -0.609375 1.3125 -0.988281 1.3125 -1.5 Z M 1.3125 -17.0625 "/></g></g></g><g fill="#222222" fill-opacity="1"><g transform="translate(9.387031, 29.484633)"><g><path d="M 0.203125 -4.421875 C 0.0664062 -4.984375 0.203125 -5.429688 0.609375 -5.765625 C 1.023438 -6.097656 1.484375 -6.265625 1.984375 -6.265625 C 2.378906 -6.265625 2.726562 -6.171875 3.03125 -5.984375 C 3.332031 -5.796875 3.519531 -5.507812 3.59375 -5.125 C 3.8125 -4.5 4.21875 -4.015625 4.8125 -3.671875 C 5.40625 -3.328125 6.070312 -3.09375 6.8125 -2.96875 C 7.5625 -2.84375 8.253906 -2.78125 8.890625 -2.78125 C 9.398438 -2.78125 9.957031 -2.816406 10.5625 -2.890625 C 11.164062 -2.972656 11.738281 -3.113281 12.28125 -3.3125 C 12.832031 -3.519531 13.285156 -3.804688 13.640625 -4.171875 C 13.992188 -4.546875 14.171875 -5.03125 14.171875 -5.625 C 14.171875 -6.25 13.910156 -6.707031 13.390625 -7 C 12.867188 -7.289062 12.207031 -7.5 11.40625 -7.625 C 10.613281 -7.75 9.773438 -7.84375 8.890625 -7.90625 C 7.898438 -7.976562 6.898438 -8.09375 5.890625 -8.25 C 4.890625 -8.40625 3.972656 -8.660156 3.140625 -9.015625 C 2.316406 -9.367188 1.648438 -9.878906 1.140625 -10.546875 C 0.628906 -11.222656 0.375 -12.117188 0.375 -13.234375 C 0.375 -14.222656 0.628906 -15.078125 1.140625 -15.796875 C 1.648438 -16.523438 2.3125 -17.117188 3.125 -17.578125 C 3.945312 -18.035156 4.835938 -18.375 5.796875 -18.59375 C 6.753906 -18.820312 7.691406 -18.9375 8.609375 -18.9375 C 9.617188 -18.9375 10.679688 -18.816406 11.796875 -18.578125 C 12.910156 -18.347656 13.929688 -17.9375 14.859375 -17.34375 C 15.785156 -16.75 16.472656 -15.914062 16.921875 -14.84375 C 17.078125 -14.289062 16.960938 -13.832031 16.578125 -13.46875 C 16.203125 -13.113281 15.757812 -12.9375 15.25 -12.9375 C 14.9375 -12.9375 14.640625 -13.007812 14.359375 -13.15625 C 14.078125 -13.300781 13.875 -13.5 13.75 -13.75 C 13.519531 -14.351562 13.109375 -14.800781 12.515625 -15.09375 C 11.929688 -15.394531 11.289062 -15.585938 10.59375 -15.671875 C 9.894531 -15.753906 9.242188 -15.796875 8.640625 -15.796875 C 8.242188 -15.796875 7.773438 -15.753906 7.234375 -15.671875 C 6.703125 -15.597656 6.179688 -15.460938 5.671875 -15.265625 C 5.171875 -15.078125 4.75 -14.8125 4.40625 -14.46875 C 4.0625 -14.125 3.890625 -13.703125 3.890625 -13.203125 C 3.890625 -12.578125 4.132812 -12.109375 4.625 -11.796875 C 5.113281 -11.484375 5.757812 -11.265625 6.5625 -11.140625 C 7.375 -11.023438 8.257812 -10.929688 9.21875 -10.859375 C 10.226562 -10.765625 11.234375 -10.648438 12.234375 -10.515625 C 13.242188 -10.390625 14.160156 -10.164062 14.984375 -9.84375 C 15.804688 -9.519531 16.457031 -9.03125 16.9375 -8.375 C 17.425781 -7.726562 17.671875 -6.816406 17.671875 -5.640625 C 17.671875 -4.472656 17.394531 -3.507812 16.84375 -2.75 C 16.289062 -1.988281 15.5625 -1.382812 14.65625 -0.9375 C 13.757812 -0.488281 12.800781 -0.171875 11.78125 0.015625 C 10.769531 0.203125 9.804688 0.296875 8.890625 0.296875 C 8.128906 0.296875 7.300781 0.222656 6.40625 0.078125 C 5.507812 -0.0664062 4.632812 -0.320312 3.78125 -0.6875 C 2.9375 -1.050781 2.191406 -1.535156 1.546875 -2.140625 C 0.898438 -2.742188 0.453125 -3.503906 0.203125 -4.421875 Z M 0.203125 -4.421875 "/></g></g></g><g fill="#222222" fill-opacity="1"><g transform="translate(29.314758, 29.484633)"><g/></g></g><g fill="#222222" fill-opacity="1"><g transform="translate(38.327849, 29.484633)"><g><path d="M 3.078125 -17.828125 L 8.453125 -10.484375 L 13.84375 -17.734375 C 14.0625 -18.003906 14.300781 -18.222656 14.5625 -18.390625 C 14.820312 -18.554688 15.109375 -18.640625 15.421875 -18.640625 C 15.796875 -18.640625 16.128906 -18.507812 16.421875 -18.25 C 16.710938 -18 16.890625 -17.675781 16.953125 -17.28125 C 17.023438 -16.894531 16.90625 -16.488281 16.59375 -16.0625 L 10.1875 -7.484375 L 10.1875 -1.75 C 10.1875 -1.207031 10 -0.78125 9.625 -0.46875 C 9.257812 -0.15625 8.878906 0 8.484375 0 C 8.015625 0 7.613281 -0.15625 7.28125 -0.46875 C 6.957031 -0.78125 6.796875 -1.207031 6.796875 -1.75 L 6.796875 -7.484375 L 0.234375 -16.15625 C -0.0546875 -16.5625 -0.164062 -16.953125 -0.09375 -17.328125 C -0.03125 -17.710938 0.15625 -18.023438 0.46875 -18.265625 C 0.78125 -18.515625 1.128906 -18.640625 1.515625 -18.640625 C 2.160156 -18.640625 2.679688 -18.367188 3.078125 -17.828125 Z M 3.078125 -17.828125 "/></g></g></g><g fill="#222222" fill-opacity="1"><g transform="translate(57.406987, 29.484633)"><g><path d="M 19.75 -9.3125 C 19.75 -7.394531 19.351562 -5.710938 18.5625 -4.265625 C 17.78125 -2.828125 16.675781 -1.707031 15.25 -0.90625 C 13.820312 -0.101562 12.15625 0.296875 10.25 0.296875 C 8.332031 0.296875 6.648438 -0.101562 5.203125 -0.90625 C 3.765625 -1.707031 2.644531 -2.828125 1.84375 -4.265625 C 1.039062 -5.710938 0.640625 -7.394531 0.640625 -9.3125 C 0.640625 -11.238281 1.039062 -12.921875 1.84375 -14.359375 C 2.644531 -15.804688 3.765625 -16.929688 5.203125 -17.734375 C 6.648438 -18.535156 8.332031 -18.9375 10.25 -18.9375 C 12.15625 -18.9375 13.820312 -18.535156 15.25 -17.734375 C 16.675781 -16.929688 17.78125 -15.804688 18.5625 -14.359375 C 19.351562 -12.921875 19.75 -11.238281 19.75 -9.3125 Z M 10.25 -2.6875 C 11.476562 -2.6875 12.546875 -2.960938 13.453125 -3.515625 C 14.359375 -4.078125 15.0625 -4.851562 15.5625 -5.84375 C 16.070312 -6.84375 16.328125 -8 16.328125 -9.3125 C 16.328125 -10.632812 16.070312 -11.789062 15.5625 -12.78125 C 15.0625 -13.78125 14.359375 -14.554688 13.453125 -15.109375 C 12.546875 -15.671875 11.476562 -15.953125 10.25 -15.953125 C 9.019531 -15.953125 7.941406 -15.671875 7.015625 -15.109375 C 6.085938 -14.554688 5.367188 -13.78125 4.859375 -12.78125 C 4.347656 -11.789062 4.09375 -10.632812 4.09375 -9.3125 C 4.09375 -8 4.347656 -6.84375 4.859375 -5.84375 C 5.367188 -4.851562 6.085938 -4.078125 7.015625 -3.515625 C 7.941406 -2.960938 9.019531 -2.6875 10.25 -2.6875 Z M 10.25 -2.6875 "/></g></g></g><g fill="#222222" fill-opacity="1"><g transform="translate(80.231632, 29.484633)"><g><path d="M 15.859375 -17.09375 C 15.859375 -17.613281 16.035156 -18 16.390625 -18.25 C 16.753906 -18.507812 17.15625 -18.640625 17.59375 -18.640625 C 18.039062 -18.640625 18.429688 -18.507812 18.765625 -18.25 C 19.109375 -18 19.28125 -17.625 19.28125 -17.125 L 19.28125 -8.21875 C 19.28125 -6.519531 18.914062 -5.03125 18.1875 -3.75 C 17.457031 -2.476562 16.429688 -1.484375 15.109375 -0.765625 C 13.796875 -0.0546875 12.253906 0.296875 10.484375 0.296875 C 8.722656 0.296875 7.175781 -0.0546875 5.84375 -0.765625 C 4.519531 -1.484375 3.492188 -2.476562 2.765625 -3.75 C 2.035156 -5.03125 1.671875 -6.519531 1.671875 -8.21875 L 1.671875 -17.171875 C 1.671875 -17.660156 1.84375 -18.023438 2.1875 -18.265625 C 2.539062 -18.515625 2.929688 -18.640625 3.359375 -18.640625 C 3.804688 -18.640625 4.210938 -18.515625 4.578125 -18.265625 C 4.941406 -18.023438 5.125 -17.65625 5.125 -17.15625 L 5.125 -8.21875 C 5.125 -6.601562 5.609375 -5.289062 6.578125 -4.28125 C 7.554688 -3.28125 8.847656 -2.78125 10.453125 -2.78125 C 12.066406 -2.78125 13.367188 -3.28125 14.359375 -4.28125 C 15.359375 -5.289062 15.859375 -6.601562 15.859375 -8.21875 Z M 15.859375 -17.09375 "/></g></g></g><g fill="#222222" fill-opacity="1"><g transform="translate(103.465939, 29.484633)"><g><path d="M 16.890625 -2.875 C 17.335938 -2.40625 17.550781 -1.945312 17.53125 -1.5 C 17.507812 -1.0625 17.34375 -0.703125 17.03125 -0.421875 C 16.71875 -0.140625 16.351562 0.00390625 15.9375 0.015625 C 15.519531 0.0234375 15.125 -0.164062 14.75 -0.5625 L 9.515625 -6.140625 L 5.09375 -6.140625 L 5.09375 -1.515625 C 5.09375 -1.035156 4.910156 -0.660156 4.546875 -0.390625 C 4.191406 -0.128906 3.804688 0 3.390625 0 C 2.960938 0 2.570312 -0.125 2.21875 -0.375 C 1.875 -0.632812 1.703125 -1.007812 1.703125 -1.5 L 1.703125 -17.125 C 1.703125 -17.570312 1.859375 -17.9375 2.171875 -18.21875 C 2.492188 -18.5 2.898438 -18.640625 3.390625 -18.640625 L 9.921875 -18.640625 C 11.679688 -18.640625 13.144531 -18.351562 14.3125 -17.78125 C 15.476562 -17.21875 16.351562 -16.457031 16.9375 -15.5 C 17.53125 -14.550781 17.828125 -13.492188 17.828125 -12.328125 C 17.828125 -10.953125 17.457031 -9.753906 16.71875 -8.734375 C 15.988281 -7.710938 14.875 -6.988281 13.375 -6.5625 Z M 5.09375 -8.984375 L 9.953125 -8.984375 C 11.515625 -8.984375 12.65625 -9.3125 13.375 -9.96875 C 14.09375 -10.625 14.4375 -11.398438 14.40625 -12.296875 C 14.382812 -13.265625 13.984375 -14.070312 13.203125 -14.71875 C 12.421875 -15.363281 11.335938 -15.6875 9.953125 -15.6875 L 5.09375 -15.6875 Z M 5.09375 -8.984375 "/></g></g></g><g fill="#222222" fill-opacity="1"><g transform="translate(123.715551, 29.484633)"><g/></g></g><g fill="#222222" fill-opacity="1"><g transform="translate(132.728641, 29.484633)"><g><path d="M 3.453125 -18.640625 C 4.078125 -18.640625 4.578125 -18.347656 4.953125 -17.765625 L 11.0625 -8.1875 L 17.15625 -17.796875 C 17.34375 -18.085938 17.578125 -18.300781 17.859375 -18.4375 C 18.148438 -18.570312 18.429688 -18.640625 18.703125 -18.640625 C 19.128906 -18.640625 19.507812 -18.5 19.84375 -18.21875 C 20.175781 -17.9375 20.34375 -17.53125 20.34375 -17 L 20.34375 -1.515625 C 20.34375 -1.015625 20.15625 -0.632812 19.78125 -0.375 C 19.414062 -0.125 19.023438 0 18.609375 0 C 18.179688 0 17.796875 -0.125 17.453125 -0.375 C 17.109375 -0.632812 16.9375 -1.015625 16.9375 -1.515625 L 16.9375 -11.390625 L 12.578125 -4.5625 C 12.421875 -4.269531 12.203125 -4.054688 11.921875 -3.921875 C 11.640625 -3.785156 11.351562 -3.71875 11.0625 -3.71875 C 10.769531 -3.71875 10.472656 -3.800781 10.171875 -3.96875 C 9.867188 -4.132812 9.640625 -4.363281 9.484375 -4.65625 L 5.1875 -11.359375 L 5.1875 -1.515625 C 5.1875 -1.015625 5.003906 -0.632812 4.640625 -0.375 C 4.273438 -0.125 3.890625 0 3.484375 0 C 3.054688 0 2.664062 -0.125 2.3125 -0.375 C 1.957031 -0.632812 1.78125 -1.015625 1.78125 -1.515625 L 1.78125 -16.96875 C 1.78125 -17.476562 1.953125 -17.882812 2.296875 -18.1875 C 2.640625 -18.488281 3.023438 -18.640625 3.453125 -18.640625 Z M 3.453125 -18.640625 "/></g></g></g><g fill="#222222" fill-opacity="1"><g transform="translate(157.2212, 29.484633)"><g><path d="M 9.5625 -18.9375 C 9.875 -18.9375 10.164062 -18.867188 10.4375 -18.734375 C 10.71875 -18.609375 10.925781 -18.398438 11.0625 -18.109375 L 19.34375 -1.875 C 19.59375 -1.445312 19.660156 -1.070312 19.546875 -0.75 C 19.429688 -0.425781 19.207031 -0.171875 18.875 0.015625 C 18.539062 0.203125 18.191406 0.296875 17.828125 0.296875 C 17.546875 0.296875 17.265625 0.222656 16.984375 0.078125 C 16.703125 -0.0664062 16.484375 -0.28125 16.328125 -0.5625 L 14.28125 -4.625 L 4.859375 -4.625 L 2.8125 -0.5625 C 2.675781 -0.25 2.460938 -0.03125 2.171875 0.09375 C 1.890625 0.226562 1.613281 0.296875 1.34375 0.296875 C 1.007812 0.296875 0.679688 0.203125 0.359375 0.015625 C 0.046875 -0.171875 -0.179688 -0.425781 -0.328125 -0.75 C -0.484375 -1.070312 -0.472656 -1.414062 -0.296875 -1.78125 L 8.046875 -18.109375 C 8.203125 -18.441406 8.398438 -18.660156 8.640625 -18.765625 C 8.890625 -18.878906 9.195312 -18.9375 9.5625 -18.9375 Z M 9.5625 -13.984375 L 6.296875 -7.46875 L 12.84375 -7.46875 Z M 9.5625 -13.984375 "/></g></g></g><g fill="#222222" fill-opacity="1"><g transform="translate(178.641265, 29.484633)"><g><path d="M 16.890625 -2.875 C 17.335938 -2.40625 17.550781 -1.945312 17.53125 -1.5 C 17.507812 -1.0625 17.34375 -0.703125 17.03125 -0.421875 C 16.71875 -0.140625 16.351562 0.00390625 15.9375 0.015625 C 15.519531 0.0234375 15.125 -0.164062 14.75 -0.5625 L 9.515625 -6.140625 L 5.09375 -6.140625 L 5.09375 -1.515625 C 5.09375 -1.035156 4.910156 -0.660156 4.546875 -0.390625 C 4.191406 -0.128906 3.804688 0 3.390625 0 C 2.960938 0 2.570312 -0.125 2.21875 -0.375 C 1.875 -0.632812 1.703125 -1.007812 1.703125 -1.5 L 1.703125 -17.125 C 1.703125 -17.570312 1.859375 -17.9375 2.171875 -18.21875 C 2.492188 -18.5 2.898438 -18.640625 3.390625 -18.640625 L 9.921875 -18.640625 C 11.679688 -18.640625 13.144531 -18.351562 14.3125 -17.78125 C 15.476562 -17.21875 16.351562 -16.457031 16.9375 -15.5 C 17.53125 -14.550781 17.828125 -13.492188 17.828125 -12.328125 C 17.828125 -10.953125 17.457031 -9.753906 16.71875 -8.734375 C 15.988281 -7.710938 14.875 -6.988281 13.375 -6.5625 Z M 5.09375 -8.984375 L 9.953125 -8.984375 C 11.515625 -8.984375 12.65625 -9.3125 13.375 -9.96875 C 14.09375 -10.625 14.4375 -11.398438 14.40625 -12.296875 C 14.382812 -13.265625 13.984375 -14.070312 13.203125 -14.71875 C 12.421875 -15.363281 11.335938 -15.6875 9.953125 -15.6875 L 5.09375 -15.6875 Z M 5.09375 -8.984375 "/></g></g></g><g fill="#222222" fill-opacity="1"><g transform="translate(198.890877, 29.484633)"><g><path d="M 16.703125 -2.609375 C 17.078125 -2.160156 17.265625 -1.757812 17.265625 -1.40625 C 17.265625 -1 17.101562 -0.660156 16.78125 -0.390625 C 16.457031 -0.128906 16.070312 0 15.625 0 C 15.394531 0 15.160156 -0.0351562 14.921875 -0.109375 C 14.691406 -0.191406 14.46875 -0.34375 14.25 -0.5625 L 7.265625 -8.046875 L 5.0625 -6.109375 L 5.0625 -1.515625 C 5.0625 -1.035156 4.878906 -0.660156 4.515625 -0.390625 C 4.160156 -0.128906 3.769531 0 3.34375 0 C 2.90625 0 2.515625 -0.128906 2.171875 -0.390625 C 1.835938 -0.660156 1.671875 -1.035156 1.671875 -1.515625 L 1.671875 -17.15625 C 1.671875 -17.65625 1.835938 -18.023438 2.171875 -18.265625 C 2.515625 -18.515625 2.90625 -18.640625 3.34375 -18.640625 C 3.769531 -18.640625 4.160156 -18.515625 4.515625 -18.265625 C 4.878906 -18.023438 5.0625 -17.65625 5.0625 -17.15625 L 5.0625 -10.15625 L 14.109375 -18.171875 C 14.472656 -18.484375 14.878906 -18.640625 15.328125 -18.640625 C 15.796875 -18.640625 16.195312 -18.484375 16.53125 -18.171875 C 16.863281 -17.859375 17.03125 -17.507812 17.03125 -17.125 C 17.03125 -16.707031 16.835938 -16.328125 16.453125 -15.984375 L 9.65625 -10.09375 Z M 16.703125 -2.609375 "/></g></g></g><g fill="#222222" fill-opacity="1"><g transform="translate(218.262633, 29.484633)"><g><path d="M 15.25 -2.921875 C 15.757812 -2.921875 16.15625 -2.757812 16.4375 -2.4375 C 16.71875 -2.113281 16.859375 -1.769531 16.859375 -1.40625 C 16.859375 -1.050781 16.722656 -0.726562 16.453125 -0.4375 C 16.191406 -0.144531 15.789062 0 15.25 0 L 3.625 0 C 3.039062 0 2.570312 -0.171875 2.21875 -0.515625 C 1.875 -0.859375 1.703125 -1.269531 1.703125 -1.75 L 1.703125 -16.921875 C 1.703125 -17.390625 1.875 -17.789062 2.21875 -18.125 C 2.570312 -18.46875 3.039062 -18.640625 3.625 -18.640625 L 15.25 -18.640625 C 15.769531 -18.640625 16.15625 -18.5 16.40625 -18.21875 C 16.664062 -17.9375 16.796875 -17.609375 16.796875 -17.234375 C 16.796875 -16.878906 16.664062 -16.546875 16.40625 -16.234375 C 16.144531 -15.929688 15.757812 -15.78125 15.25 -15.78125 L 5.03125 -15.78125 L 5.03125 -10.65625 L 14.71875 -10.65625 C 15.226562 -10.65625 15.609375 -10.503906 15.859375 -10.203125 C 16.117188 -9.898438 16.25 -9.5625 16.25 -9.1875 C 16.25 -8.832031 16.117188 -8.507812 15.859375 -8.21875 C 15.609375 -7.925781 15.226562 -7.78125 14.71875 -7.78125 L 5.03125 -7.78125 L 5.03125 -2.921875 Z M 15.25 -2.921875 "/></g></g></g><g fill="#222222" fill-opacity="1"><g transform="translate(237.98552, 29.484633)"><g><path d="M 15.15625 -18.640625 C 15.726562 -18.640625 16.160156 -18.484375 16.453125 -18.171875 C 16.742188 -17.859375 16.890625 -17.507812 16.890625 -17.125 C 16.890625 -16.75 16.742188 -16.40625 16.453125 -16.09375 C 16.160156 -15.78125 15.726562 -15.625 15.15625 -15.625 L 9.71875 -15.625 L 9.75 -1.546875 C 9.75 -1.023438 9.554688 -0.632812 9.171875 -0.375 C 8.796875 -0.125 8.410156 0 8.015625 0 C 7.609375 0 7.222656 -0.125 6.859375 -0.375 C 6.503906 -0.632812 6.328125 -1.023438 6.328125 -1.546875 L 6.328125 -15.625 L 0.90625 -15.625 C 0.34375 -15.625 -0.0664062 -15.78125 -0.328125 -16.09375 C -0.597656 -16.40625 -0.734375 -16.75 -0.734375 -17.125 C -0.734375 -17.507812 -0.597656 -17.859375 -0.328125 -18.171875 C -0.0664062 -18.484375 0.34375 -18.640625 0.90625 -18.640625 Z M 15.15625 -18.640625 "/></g></g></g><g fill="#222222" fill-opacity="1"><g transform="translate(256.245315, 29.484633)"><g><path d="M 5.0625 -5.1875 L 5.0625 -1.5 C 5.0625 -0.988281 4.878906 -0.609375 4.515625 -0.359375 C 4.160156 -0.117188 3.773438 0 3.359375 0 C 2.929688 0 2.546875 -0.117188 2.203125 -0.359375 C 1.867188 -0.609375 1.703125 -0.976562 1.703125 -1.46875 L 1.703125 -17.125 C 1.703125 -17.570312 1.863281 -17.9375 2.1875 -18.21875 C 2.519531 -18.5 2.921875 -18.640625 3.390625 -18.640625 L 9.359375 -18.640625 C 10.984375 -18.640625 12.367188 -18.351562 13.515625 -17.78125 C 14.671875 -17.207031 15.550781 -16.40625 16.15625 -15.375 C 16.757812 -14.351562 17.0625 -13.148438 17.0625 -11.765625 C 17.0625 -9.796875 16.378906 -8.207031 15.015625 -7 C 13.648438 -5.789062 11.738281 -5.1875 9.28125 -5.1875 Z M 5.0625 -15.75 L 5.0625 -8.078125 L 9.28125 -8.078125 C 10.71875 -8.078125 11.816406 -8.410156 12.578125 -9.078125 C 13.335938 -9.753906 13.71875 -10.648438 13.71875 -11.765625 C 13.71875 -12.972656 13.34375 -13.9375 12.59375 -14.65625 C 11.84375 -15.382812 10.773438 -15.75 9.390625 -15.75 Z M 5.0625 -15.75 "/></g></g></g><g fill="#222222" fill-opacity="1"><g transform="translate(275.997468, 29.484633)"><g><path d="M 3.421875 0 C 2.796875 0 2.347656 -0.132812 2.078125 -0.40625 C 1.804688 -0.675781 1.671875 -1.066406 1.671875 -1.578125 L 1.671875 -17.15625 C 1.671875 -17.65625 1.847656 -18.023438 2.203125 -18.265625 C 2.566406 -18.515625 2.960938 -18.640625 3.390625 -18.640625 C 3.804688 -18.640625 4.191406 -18.515625 4.546875 -18.265625 C 4.910156 -18.023438 5.09375 -17.65625 5.09375 -17.15625 L 5.09375 -2.921875 L 14.6875 -2.921875 C 15.257812 -2.921875 15.695312 -2.765625 16 -2.453125 C 16.300781 -2.140625 16.453125 -1.8125 16.453125 -1.46875 C 16.453125 -1.09375 16.300781 -0.753906 16 -0.453125 C 15.695312 -0.148438 15.257812 0 14.6875 0 Z M 3.421875 0 "/></g></g></g><g fill="#222222" fill-opacity="1"><g transform="translate(293.876867, 29.484633)"><g><path d="M 9.5625 -18.9375 C 9.875 -18.9375 10.164062 -18.867188 10.4375 -18.734375 C 10.71875 -18.609375 10.925781 -18.398438 11.0625 -18.109375 L 19.34375 -1.875 C 19.59375 -1.445312 19.660156 -1.070312 19.546875 -0.75 C 19.429688 -0.425781 19.207031 -0.171875 18.875 0.015625 C 18.539062 0.203125 18.191406 0.296875 17.828125 0.296875 C 17.546875 0.296875 17.265625 0.222656 16.984375 0.078125 C 16.703125 -0.0664062 16.484375 -0.28125 16.328125 -0.5625 L 14.28125 -4.625 L 4.859375 -4.625 L 2.8125 -0.5625 C 2.675781 -0.25 2.460938 -0.03125 2.171875 0.09375 C 1.890625 0.226562 1.613281 0.296875 1.34375 0.296875 C 1.007812 0.296875 0.679688 0.203125 0.359375 0.015625 C 0.046875 -0.171875 -0.179688 -0.425781 -0.328125 -0.75 C -0.484375 -1.070312 -0.472656 -1.414062 -0.296875 -1.78125 L 8.046875 -18.109375 C 8.203125 -18.441406 8.398438 -18.660156 8.640625 -18.765625 C 8.890625 -18.878906 9.195312 -18.9375 9.5625 -18.9375 Z M 9.5625 -13.984375 L 6.296875 -7.46875 L 12.84375 -7.46875 Z M 9.5625 -13.984375 "/></g></g></g><g fill="#222222" fill-opacity="1"><g transform="translate(315.296933, 29.484633)"><g><path d="M 10.25 -18.9375 C 11.6875 -18.9375 13.019531 -18.71875 14.25 -18.28125 C 15.476562 -17.851562 16.570312 -17.101562 17.53125 -16.03125 C 17.914062 -15.582031 18.082031 -15.15625 18.03125 -14.75 C 17.988281 -14.34375 17.804688 -14.007812 17.484375 -13.75 C 17.160156 -13.5 16.78125 -13.382812 16.34375 -13.40625 C 15.90625 -13.425781 15.488281 -13.640625 15.09375 -14.046875 C 14.375 -14.847656 13.609375 -15.363281 12.796875 -15.59375 C 11.992188 -15.832031 11.132812 -15.953125 10.21875 -15.953125 C 8.988281 -15.953125 7.910156 -15.679688 6.984375 -15.140625 C 6.054688 -14.609375 5.332031 -13.863281 4.8125 -12.90625 C 4.289062 -11.945312 4.03125 -10.828125 4.03125 -9.546875 C 4.03125 -8.171875 4.296875 -6.96875 4.828125 -5.9375 C 5.359375 -4.90625 6.09375 -4.101562 7.03125 -3.53125 C 7.976562 -2.96875 9.085938 -2.6875 10.359375 -2.6875 C 11.273438 -2.6875 12.191406 -2.921875 13.109375 -3.390625 C 14.023438 -3.859375 14.757812 -4.425781 15.3125 -5.09375 C 15.695312 -5.5625 16.117188 -5.828125 16.578125 -5.890625 C 17.035156 -5.960938 17.4375 -5.882812 17.78125 -5.65625 C 18.125 -5.4375 18.328125 -5.117188 18.390625 -4.703125 C 18.460938 -4.296875 18.320312 -3.84375 17.96875 -3.34375 C 17.4375 -2.59375 16.75 -1.941406 15.90625 -1.390625 C 15.070312 -0.847656 14.164062 -0.429688 13.1875 -0.140625 C 12.21875 0.148438 11.253906 0.296875 10.296875 0.296875 C 8.367188 0.296875 6.679688 -0.113281 5.234375 -0.9375 C 3.796875 -1.757812 2.675781 -2.90625 1.875 -4.375 C 1.070312 -5.84375 0.671875 -7.566406 0.671875 -9.546875 C 0.671875 -11.429688 1.085938 -13.078125 1.921875 -14.484375 C 2.765625 -15.890625 3.910156 -16.984375 5.359375 -17.765625 C 6.816406 -18.546875 8.445312 -18.9375 10.25 -18.9375 Z M 10.25 -18.9375 "/></g></g></g><g fill="#222222" fill-opacity="1"><g transform="translate(335.839182, 29.484633)"><g><path d="M 15.25 -2.921875 C 15.757812 -2.921875 16.15625 -2.757812 16.4375 -2.4375 C 16.71875 -2.113281 16.859375 -1.769531 16.859375 -1.40625 C 16.859375 -1.050781 16.722656 -0.726562 16.453125 -0.4375 C 16.191406 -0.144531 15.789062 0 15.25 0 L 3.625 0 C 3.039062 0 2.570312 -0.171875 2.21875 -0.515625 C 1.875 -0.859375 1.703125 -1.269531 1.703125 -1.75 L 1.703125 -16.921875 C 1.703125 -17.390625 1.875 -17.789062 2.21875 -18.125 C 2.570312 -18.46875 3.039062 -18.640625 3.625 -18.640625 L 15.25 -18.640625 C 15.769531 -18.640625 16.15625 -18.5 16.40625 -18.21875 C 16.664062 -17.9375 16.796875 -17.609375 16.796875 -17.234375 C 16.796875 -16.878906 16.664062 -16.546875 16.40625 -16.234375 C 16.144531 -15.929688 15.757812 -15.78125 15.25 -15.78125 L 5.03125 -15.78125 L 5.03125 -10.65625 L 14.71875 -10.65625 C 15.226562 -10.65625 15.609375 -10.503906 15.859375 -10.203125 C 16.117188 -9.898438 16.25 -9.5625 16.25 -9.1875 C 16.25 -8.832031 16.117188 -8.507812 15.859375 -8.21875 C 15.609375 -7.925781 15.226562 -7.78125 14.71875 -7.78125 L 5.03125 -7.78125 L 5.03125 -2.921875 Z M 15.25 -2.921875 "/></g></g></g></g></g></svg>